<svg width="16" height="16" viewBox="0 0 16 16" fill="none" xmlns="http://www.w3.org/2000/svg">
<path d="M1.60242 4.70721L8.00002 7.90561L14.3976 4.70721C14.3739 4.29957 14.1953 3.9164 13.8983 3.63619C13.6013 3.35598 13.2083 3.19994 12.8 3.20001H3.20002C2.79168 3.19994 2.39877 3.35598 2.10176 3.63619C1.80474 3.9164 1.6261 4.29957 1.60242 4.70721Z" fill="#B9B8B8"/>
<path d="M14.4 6.49438L7.99998 9.69438L1.59998 6.49438V11.2C1.59998 11.6243 1.76855 12.0313 2.0686 12.3314C2.36866 12.6314 2.77563 12.8 3.19998 12.8H12.8C13.2243 12.8 13.6313 12.6314 13.9313 12.3314C14.2314 12.0313 14.4 11.6243 14.4 11.2V6.49438Z" fill="#B9B8B8"/>
</svg>
