<svg width="16" height="16" viewBox="0 0 16 16" fill="none" xmlns="http://www.w3.org/2000/svg">
<path d="M12 8.66665H8.66668V12C8.66668 12.3666 8.36668 12.6666 8.00001 12.6666C7.63334 12.6666 7.33334 12.3666 7.33334 12V8.66665H4.00001C3.63334 8.66665 3.33334 8.36665 3.33334 7.99998C3.33334 7.63331 3.63334 7.33331 4.00001 7.33331H7.33334V3.99998C7.33334 3.63331 7.63334 3.33331 8.00001 3.33331C8.36668 3.33331 8.66668 3.63331 8.66668 3.99998V7.33331H12C12.3667 7.33331 12.6667 7.63331 12.6667 7.99998C12.6667 8.36665 12.3667 8.66665 12 8.66665Z" fill="white"/>
</svg>
